<svg width="32" height="32" viewBox="0 0 32 32" fill="none" xmlns="http://www.w3.org/2000/svg">
<path d="M21 17C18.7908 17 17 18.7908 17 21V27C17 29.2092 18.7908 31 21 31H27C29.2092 31 31 29.2092 31 27V21C31 18.7908 29.2092 17 27 17H21Z" fill="#023DFF"/>
<path d="M24 28L24 24" stroke="white" stroke-width="1.5" stroke-linecap="round" stroke-linejoin="round"/>
<path d="M27 21H21" stroke="white" stroke-width="1.5" stroke-linecap="round" stroke-linejoin="round"/>
<path d="M27 24H21" stroke="white" stroke-width="1.5" stroke-linecap="round" stroke-linejoin="round"/>
<path d="M5 1C2.79086 1 1 2.79086 1 5V11C1 13.2092 2.79086 15 5 15H11C13.2092 15 15 13.2092 15 11V5C15 2.79086 13.2092 1 11 1H5Z" fill="#023DFF"/>
<path d="M18 7.14286C18 6.51166 18.5037 6 19.125 6H20.25C22.5853 6 24.5052 7.8072 24.7283 10.12L25.0795 9.76331C25.5188 9.31697 26.2312 9.31697 26.6705 9.76331C27.1098 10.2096 27.1098 10.9332 26.6705 11.3795L24.4205 13.6652C23.9812 14.1116 23.2688 14.1116 22.8295 13.6652L20.5795 11.3795C20.1401 10.9332 20.1401 10.2096 20.5795 9.76331C21.0188 9.31697 21.7312 9.31697 22.1705 9.76331L22.4376 10.0347C22.1999 9.03125 21.3106 8.28571 20.25 8.28571H19.125C18.5037 8.28571 18 7.77405 18 7.14286Z" fill="#023DFF"/>
<path d="M12.875 26C13.4963 26 14 25.4883 14 24.8571C14 24.2259 13.4963 23.7143 12.875 23.7143H11.75C10.6894 23.7143 9.8001 22.9687 9.56239 21.9653L9.82952 22.2367C10.2688 22.683 10.9812 22.683 11.4205 22.2367C11.8599 21.7904 11.8599 21.0668 11.4205 20.6205L9.17049 18.3348C8.73118 17.8884 8.01883 17.8884 7.57952 18.3348L5.32953 20.6205C4.89016 21.0668 4.89016 21.7904 5.32953 22.2367C5.76884 22.683 6.48119 22.683 6.9205 22.2367L7.27167 21.88C7.49481 24.1928 9.41468 26 11.75 26H12.875Z" fill="#023DFF"/>
<circle cx="8" cy="8" r="2" stroke="white" stroke-width="1.5" stroke-linecap="round" stroke-linejoin="round"/>
</svg>
