<svg width="32" height="32" viewBox="0 0 32 32" fill="none" xmlns="http://www.w3.org/2000/svg">
<path fill-rule="evenodd" clip-rule="evenodd" d="M26.6666 29.3334H5.33329C3.85996 29.3334 2.66663 28.1401 2.66663 26.6667V5.33341C2.66663 3.86008 3.85996 2.66675 5.33329 2.66675H26.6666C28.14 2.66675 29.3333 3.86008 29.3333 5.33341V26.6667C29.3333 28.1401 28.14 29.3334 26.6666 29.3334Z" fill="#023DFF"/>
<path fill-rule="evenodd" clip-rule="evenodd" d="M24 25.3334H7.99996C7.26396 25.3334 6.66663 24.7361 6.66663 24.0001V8.00008C6.66663 7.26408 7.26396 6.66675 7.99996 6.66675H24C24.736 6.66675 25.3333 7.26408 25.3333 8.00008V24.0001C25.3333 24.7361 24.736 25.3334 24 25.3334Z" stroke="white" stroke-width="2" stroke-linecap="round" stroke-linejoin="round"/>
<path d="M15.2189 14.1143C16.2603 15.1557 16.2603 16.8441 15.2189 17.8855C14.1775 18.9269 12.4891 18.9269 11.4477 17.8855C10.4063 16.8441 10.4063 15.1557 11.4477 14.1143C12.4891 13.0729 14.1775 13.0729 15.2189 14.1143" stroke="white" stroke-width="2" stroke-linecap="round" stroke-linejoin="round"/>
<path d="M25.3333 13.3334H22.6666" stroke="white" stroke-width="2" stroke-linecap="round" stroke-linejoin="round"/>
<path d="M25.3333 18.6667H22.6666" stroke="white" stroke-width="2" stroke-linecap="round" stroke-linejoin="round"/>
</svg>
